P2
80 60
365
108 110 113 110 114 109 101 102 99 102 98 101 100 99 95 97 94 92 93 93 94 92 92 89 94 96 94 93 97 97 94 94 97 100 104 100 101 102 104 102 102 101 95 97 94 97 99 94 98 97 96 90 91 91 92 90 85 90 94 91 93 86 79 77 80 78 81 84 79 84 84 85 81 82 80 66 54 54 56 56 
110 108 116 109 114 112 105 99 100 98 97 100 98 98 95 92 96 93 90 92 93 95 90 92 97 97 94 95 98 96 98 96 95 101 97 99 105 100 102 100 99 100 98 98 96 97 95 95 96 96 94 93 89 93 99 98 93 90 91 89 92 87 84 83 79 79 83 82 76 81 81 81 83 78 77 73 69 54 60 51 
107 106 113 108 112 112 102 101 97 96 96 92 99 96 92 91 90 89 90 92 93 91 88 90 90 91 94 97 95 95 95 93 94 97 98 97 98 99 96 94 103 100 99 95 97 98 96 93 96 96 93 87 91 96 96 100 97 91 89 87 90 86 86 79 82 78 77 78 72 76 76 72 77 72 74 63 62 54 50 53 
106 104 111 108 115 113 103 99 97 89 93 93 96 94 92 89 89 87 91 88 91 91 88 90 92 91 94 89 97 93 92 93 92 95 95 93 95 96 92 93 100 100 101 95 94 95 91 90 94 90 88 86 89 87 94 91 94 86 87 84 86 82 79 75 77 74 77 71 68 68 68 66 69 63 59 62 52 51 56 47 
105 104 110 106 111 111 100 94 92 94 92 94 92 91 92 88 90 86 89 89 93 92 90 90 91 92 92 90 95 95 94 91 89 93 97 96 91 96 95 100 100 97 98 96 93 94 92 89 94 91 91 86 87 84 90 92 92 83 80 78 84 78 80 74 74 68 73 67 70 66 59 56 51 52 54 54 50 49 50 53 
107 103 110 105 108 105 98 96 91 92 92 94 92 92 92 89 89 90 88 93 97 94 89 93 92 92 93 93 95 93 91 92 92 95 95 96 91 91 91 96 101 97 97 91 91 95 93 90 88 88 90 85 84 78 87 83 94 84 81 74 81 76 77 72 70 73 71 70 63 61 59 50 53 46 48 49 49 43 53 55 
107 103 106 106 106 104 98 94 92 95 91 95 93 95 93 91 95 91 88 90 91 91 90 89 93 90 92 94 91 94 91 91 92 94 95 92 89 90 90 94 99 99 94 91 92 95 91 88 88 87 88 82 80 77 75 79 82 76 74 70 73 73 72 67 68 70 68 63 57 57 53 50 50 47 44 42 43 46 49 55 
105 104 107 103 108 102 96 96 93 90 91 93 96 94 93 91 95 89 91 89 91 90 91 92 93 90 90 92 90 92 90 92 90 92 90 92 89 90 92 91 96 92 92 92 90 89 86 84 87 86 84 78 74 72 70 74 71 69 71 65 67 67 64 65 64 61 61 56 48 50 48 47 46 45 44 35 37 40 44 45 
104 102 105 110 105 101 96 96 93 89 90 98 97 96 94 96 99 94 91 89 92 86 91 91 90 91 90 88 91 89 92 93 90 92 94 89 87 88 88 89 89 94 93 89 89 90 87 85 81 78 80 74 75 75 72 69 70 69 64 58 63 59 61 58 60 56 56 54 45 43 40 40 43 43 41 40 36 35 36 45 
104 102 103 103 104 100 97 98 101 98 96 98 102 95 97 96 102 94 90 90 95 91 90 89 91 89 89 90 88 89 90 91 88 88 89 91 86 85 84 84 89 91 89 91 88 88 84 81 80 81 77 70 75 69 63 69 65 66 63 56 56 54 54 55 54 53 52 49 43 40 42 38 32 37 38 32 28 28 29 36 
101 98 102 104 106 99 94 95 98 99 95 100 102 102 102 104 102 97 95 93 91 91 88 89 91 87 82 87 86 90 88 89 87 91 90 92 84 87 87 83 86 91 92 89 84 86 82 84 81 80 80 72 71 66 63 58 66 64 55 52 56 51 51 50 53 50 46 44 43 41 39 38 37 35 31 27 30 27 26 24 
100 97 104 102 101 100 96 97 99 99 96 99 99 100 103 98 101 94 94 95 93 90 87 87 86 87 86 86 86 83 85 88 88 89 87 90 88 88 84 81 84 87 90 86 83 82 75 79 80 82 80 72 70 66 63 57 58 58 56 52 52 46 42 43 48 48 47 44 41 40 39 38 35 32 34 29 24 26 29 24 
102 102 105 100 103 106 98 102 103 98 97 100 102 100 98 100 102 99 99 94 94 92 91 92 90 88 87 85 87 87 88 86 87 92 91 90 86 87 82 81 83 85 86 86 82 87 89 87 94 102 100 78 73 65 62 59 60 57 52 50 51 47 42 42 39 41 41 40 37 37 37 37 38 33 33 25 28 24 26 22 
102 99 103 96 103 104 98 104 92 99 99 103 102 101 102 100 100 98 96 97 94 92 92 92 92 92 92 88 88 87 87 85 86 89 88 88 85 88 88 81 81 85 94 99 104 122 127 134 136 139 123 102 81 72 64 59 56 58 52 46 46 44 43 41 38 38 44 38 34 37 38 36 35 31 33 29 27 28 22 22 
101 96 103 100 103 103 99 98 100 100 98 101 102 104 99 98 98 99 96 98 91 93 89 93 96 90 93 88 88 91 88 89 89 90 90 89 88 87 89 85 90 101 124 147 159 161 154 153 165 178 184 166 134 105 79 61 56 54 51 47 48 44 38 38 39 39 36 36 29 33 32 36 34 32 32 28 30 28 26 16 
100 97 105 101 105 103 97 96 100 100 99 101 102 105 101 99 98 98 96 96 95 92 92 88 96 93 93 90 91 89 90 92 92 91 93 89 84 84 82 88 111 153 180 179 173 160 162 171 181 190 180 164 149 143 122 86 62 52 50 42 43 41 39 37 38 37 34 33 31 32 26 31 36 32 32 27 24 27 26 23 
96 99 103 102 106 103 102 97 97 97 98 98 102 103 96 94 94 101 97 97 93 94 90 90 91 93 92 89 90 91 91 88 92 87 90 85 84 84 85 108 161 203 193 183 171 161 166 159 162 160 168 145 140 135 133 139 81 59 45 41 41 39 39 35 35 33 31 32 26 27 23 24 20 23 28 23 23 20 23 21 
93 92 101 95 100 102 95 94 99 94 96 101 96 99 97 96 96 98 95 94 93 93 91 90 89 91 92 93 92 88 86 87 88 89 90 89 88 85 93 140 190 205 196 182 165 167 169 158 163 165 168 152 140 142 143 156 127 82 48 36 37 37 35 35 31 31 32 28 23 26 26 18 20 15 21 18 15 16 21 24 
94 96 97 92 97 97 91 93 94 94 96 97 96 95 91 88 96 98 92 93 92 93 90 88 88 88 90 91 91 91 88 86 86 85 90 86 85 87 101 181 232 223 209 202 183 193 190 173 169 171 168 161 154 147 162 171 135 108 55 41 36 35 34 33 33 27 30 27 22 22 23 19 20 19 21 19 15 15 16 11 
93 91 98 92 96 96 91 97 92 95 93 95 92 93 90 89 89 90 91 87 91 92 88 89 89 92 90 89 88 87 88 87 83 81 88 86 86 95 119 232 266 256 247 230 242 257 248 237 223 214 201 183 183 189 187 162 148 132 75 43 39 37 31 31 29 25 27 27 20 18 21 20 18 14 23 20 21 15 14 11 
91 90 96 92 98 94 93 97 95 96 92 95 91 93 89 90 91 93 90 87 87 90 85 86 83 88 87 86 82 85 86 83 83 82 88 87 88 98 159 283 314 309 301 289 305 319 316 297 282 258 253 232 212 200 184 170 158 132 81 45 40 36 30 32 30 26 25 25 24 23 24 22 24 17 20 17 16 17 13 13 
94 93 100 94 98 96 92 93 96 96 91 93 90 89 93 89 92 91 90 87 91 89 87 86 85 82 84 83 83 81 84 86 85 82 84 87 85 98 195 287 302 321 324 326 324 325 322 314 302 296 299 302 260 224 207 197 165 150 95 50 42 36 31 33 33 30 24 26 28 25 28 26 28 23 23 18 18 19 18 15 
94 90 97 92 95 95 92 93 95 94 92 92 92 92 90 90 93 89 89 87 87 88 85 82 84 82 82 82 81 83 86 83 83 87 87 88 93 105 222 270 281 317 324 324 321 324 315 308 299 296 305 303 302 271 235 189 162 162 106 54 39 41 32 29 29 29 24 24 24 27 29 26 28 22 25 21 21 17 18 14 
94 92 93 91 98 93 92 93 91 92 89 90 91 91 88 88 89 88 89 88 84 86 84 85 84 84 84 80 79 80 83 84 84 82 85 91 110 119 221 279 287 299 320 323 313 313 302 289 290 287 297 303 303 289 262 199 177 165 99 50 41 38 34 33 34 30 30 28 27 30 30 25 24 22 22 20 22 19 13 12 
92 92 92 91 92 95 92 91 89 90 90 88 85 90 88 88 91 88 87 86 86 88 84 81 77 85 80 83 80 81 82 83 82 82 83 96 129 144 161 193 244 299 320 314 307 307 287 270 264 268 278 290 300 301 252 191 167 168 86 45 42 37 31 31 34 32 31 35 30 29 30 26 25 20 24 19 20 17 15 9 
93 92 95 91 96 93 91 93 91 88 91 90 88 90 91 89 91 87 91 85 83 82 79 80 81 85 81 81 81 82 80 79 81 81 85 96 130 144 157 165 186 231 282 292 292 296 291 279 266 259 261 278 303 293 217 187 172 161 83 43 38 36 32 32 34 31 35 34 32 29 31 27 24 24 23 19 22 15 13 14 
91 92 99 95 93 98 94 94 89 87 91 93 94 93 90 91 88 88 88 84 82 81 81 80 83 85 79 82 79 75 77 80 77 80 83 93 129 146 158 176 198 245 266 260 210 193 187 205 241 258 266 267 294 277 213 192 186 147 78 42 37 36 34 35 34 33 32 33 31 28 25 25 21 22 21 19 16 14 8 9 
91 92 98 94 99 93 92 92 93 88 87 90 95 93 92 90 88 88 86 85 84 80 79 82 82 80 80 81 79 77 80 79 78 79 81 90 123 148 158 173 218 288 296 274 199 165 144 130 141 157 206 245 286 277 219 204 184 146 66 43 38 36 32 33 32 31 33 32 27 26 23 20 22 17 17 17 10 9 7 12 
92 88 95 95 94 96 91 90 87 85 92 92 95 91 87 85 87 88 86 82 84 82 80 83 80 82 79 79 76 76 71 74 75 79 79 86 180 205 184 188 245 309 309 280 194 161 144 129 127 121 116 132 197 223 210 208 194 130 58 39 39 35 33 32 35 34 32 31 27 28 26 21 20 20 13 13 10 10 10 7 
87 91 92 96 99 94 89 89 89 90 89 89 91 91 87 88 86 87 88 84 85 81 82 79 78 79 78 77 75 74 72 70 68 72 79 94 228 285 291 303 306 317 312 282 184 154 136 126 120 122 177 193 165 157 164 193 207 118 59 43 37 38 32 35 32 31 28 29 26 27 21 18 18 19 17 11 8 10 11 6 
88 90 97 94 96 95 91 91 93 91 93 90 90 88 86 87 86 85 86 81 83 78 81 77 78 83 77 77 77 72 72 70 70 74 77 105 253 291 310 315 312 314 311 313 231 163 140 127 126 151 265 278 282 256 219 226 207 105 52 39 40 41 34 34 33 29 29 27 24 23 21 17 16 15 16 9 8 7 11 2 
90 93 96 96 95 99 94 93 90 92 93 89 93 91 90 85 87 85 86 85 83 83 79 79 77 78 81 80 74 71 65 70 68 72 77 118 262 297 308 317 319 318 319 320 325 290 234 193 194 252 276 278 281 262 226 229 194 122 54 44 42 36 30 30 32 33 29 26 25 20 23 21 14 15 16 11 6 5 4 4 
90 94 96 95 96 97 92 89 91 94 93 90 88 93 84 85 86 86 86 83 81 80 79 80 78 76 78 77 75 70 68 70 71 73 75 112 258 294 312 327 320 322 317 319 325 317 298 278 270 272 275 273 277 265 240 221 173 95 49 39 41 36 32 31 31 28 29 28 22 22 19 18 17 15 17 11 6 4 6 0 
93 94 99 95 92 91 86 91 88 90 89 91 90 86 81 81 84 83 84 82 82 79 81 80 77 76 77 76 74 70 68 71 70 75 74 106 263 297 307 313 313 310 317 321 320 309 289 277 275 276 280 280 271 259 246 202 139 67 43 40 38 36 32 28 34 28 28 28 23 17 19 17 17 13 17 11 12 10 7 8 
94 93 98 93 97 96 91 91 90 91 89 92 91 86 82 84 82 80 83 79 81 80 78 78 78 77 78 79 74 73 69 69 71 73 77 97 255 300 303 304 305 305 303 306 306 306 290 282 281 283 285 278 277 264 236 167 78 49 39 36 38 35 31 28 30 28 29 29 23 22 18 13 14 13 16 11 11 9 8 9 
90 93 99 92 100 101 95 93 92 93 92 93 92 90 82 86 85 83 82 81 81 79 77 77 79 79 79 74 75 70 72 70 72 79 89 127 255 299 295 311 305 287 292 293 296 307 291 285 288 289 289 285 276 260 212 105 61 44 40 38 35 33 30 28 31 25 26 23 21 21 18 16 14 13 15 10 9 9 8 9 
93 93 95 99 97 99 93 94 94 91 92 90 89 91 90 87 85 85 88 82 82 83 78 75 76 79 75 71 73 70 74 78 104 166 198 201 274 307 292 305 298 270 276 291 301 309 292 283 287 291 291 284 271 226 157 71 52 43 40 36 37 34 30 28 27 24 24 28 19 21 17 17 18 14 22 11 10 12 11 12 
96 92 95 94 97 97 95 97 94 92 94 94 90 91 89 87 89 86 84 84 88 80 79 76 78 75 77 70 76 75 90 137 188 220 215 215 269 306 300 298 283 271 275 288 298 301 289 280 287 294 296 281 273 199 102 59 50 43 41 36 38 37 34 30 34 31 26 28 21 27 20 18 19 18 20 19 20 14 9 12 
93 94 96 94 98 99 96 96 93 96 96 95 95 95 92 89 85 85 86 83 85 78 73 75 73 74 76 75 75 103 159 189 222 208 193 198 257 302 300 307 304 307 309 307 310 301 291 284 288 297 289 277 254 167 112 65 54 49 43 37 39 35 32 33 31 30 33 27 25 26 29 25 21 16 23 19 18 18 16 14 
94 92 98 92 99 98 97 97 94 95 95 95 95 94 90 85 82 82 84 82 80 77 74 74 75 74 78 95 133 167 179 215 194 175 188 213 254 300 302 299 302 308 312 314 307 300 298 287 285 290 290 269 199 150 140 109 77 62 45 37 40 39 38 34 34 34 31 28 25 30 29 25 21 20 21 19 19 18 19 17 
94 94 95 96 96 100 95 94 95 91 96 97 97 92 89 87 84 82 83 79 80 77 74 74 75 85 119 176 188 187 193 180 176 190 209 222 231 291 290 297 300 308 310 313 309 300 299 288 288 288 273 200 164 157 154 145 131 107 61 43 43 39 36 34 33 33 33 28 28 27 31 27 24 24 18 17 20 18 20 14 
96 93 97 94 95 99 96 94 95 92 96 94 93 89 89 81 85 80 80 82 80 77 76 83 104 157 196 200 200 178 165 164 182 197 197 204 193 269 284 289 298 308 310 306 299 304 299 290 291 259 195 169 172 171 166 160 154 142 112 60 48 41 36 35 33 33 30 31 26 28 29 25 25 23 26 22 24 21 18 17 
92 91 95 97 101 98 95 96 94 91 90 93 93 89 85 81 85 83 82 79 80 77 82 123 186 211 215 201 182 154 163 178 196 191 192 170 180 243 282 290 294 308 307 300 294 294 291 275 228 180 181 186 196 199 196 183 173 167 146 110 60 45 41 40 37 32 31 29 26 29 28 27 29 27 22 25 24 18 19 22 
96 92 98 98 100 99 102 95 95 92 91 93 92 89 85 80 86 85 84 87 85 86 131 203 221 224 211 198 164 161 169 191 200 208 184 188 196 216 275 285 288 301 307 296 278 258 224 182 172 181 202 212 211 205 182 178 176 168 162 138 90 52 48 42 39 37 32 33 30 28 29 28 31 26 26 23 23 26 23 22 
96 93 93 96 96 97 95 94 94 91 91 91 93 88 85 83 88 91 91 119 134 147 208 221 231 230 226 175 157 168 176 193 210 196 178 181 206 208 273 293 254 247 239 210 179 167 158 158 175 199 216 207 190 176 177 188 185 174 168 165 147 85 57 50 41 36 34 34 31 32 32 29 30 27 28 29 29 28 25 23 
100 100 98 100 102 103 98 99 95 94 96 99 90 93 90 91 120 151 163 182 181 194 228 232 238 233 202 158 168 178 188 204 199 172 173 189 214 219 230 204 179 161 155 150 145 149 156 161 185 207 208 192 175 182 189 186 184 183 176 173 177 147 88 54 47 43 38 38 34 35 35 32 34 31 31 30 27 32 32 27 
100 99 102 102 99 107 105 113 115 113 103 100 105 108 116 142 195 221 227 204 186 217 226 242 241 234 172 165 183 194 204 201 171 168 178 195 206 190 165 173 180 162 146 148 153 158 159 176 201 202 202 186 178 192 192 192 188 178 180 182 182 176 148 79 55 43 43 40 39 38 34 36 35 30 32 31 30 27 31 33 
100 103 108 102 108 111 142 181 215 202 152 139 163 189 193 209 216 230 225 220 199 221 228 247 240 221 167 176 195 202 209 179 160 162 173 172 158 165 174 185 192 190 152 152 161 161 171 192 197 210 217 190 191 194 192 189 189 186 187 187 186 186 175 137 71 50 46 44 40 38 36 35 37 34 34 31 28 31 27 28 
98 104 115 105 116 135 179 207 240 225 195 197 213 216 216 220 219 227 233 238 219 227 229 239 239 188 174 191 211 206 184 161 166 161 157 156 163 176 188 202 197 196 165 161 158 177 196 193 200 220 219 195 200 193 185 183 182 185 184 190 191 187 178 161 106 58 50 50 43 40 39 38 34 37 34 28 31 31 30 28 
128 127 137 121 145 170 188 200 205 208 205 206 200 204 219 228 230 226 241 240 236 236 235 240 230 175 181 193 185 177 172 171 166 152 159 166 172 182 184 187 193 186 169 169 166 194 200 188 221 239 214 196 191 181 172 169 179 184 183 183 180 175 165 165 145 73 56 51 46 43 44 38 40 36 34 28 27 30 30 29 
182 176 180 163 170 179 186 198 202 207 210 210 204 209 217 228 238 235 237 255 244 249 247 232 198 192 187 183 174 180 183 181 167 162 171 180 180 189 198 191 182 172 177 169 184 198 187 202 243 252 208 190 180 177 181 191 192 191 191 183 185 179 166 172 166 115 68 61 49 45 47 44 40 36 34 26 25 31 29 29 
204 191 192 173 187 205 209 211 217 218 218 215 210 213 219 230 241 240 238 254 253 259 255 210 196 203 181 177 182 184 186 171 167 174 173 186 201 204 193 182 175 177 170 174 191 190 187 219 254 252 215 188 179 187 200 206 207 200 192 189 195 197 191 189 189 181 145 121 87 66 54 48 41 35 36 26 30 32 31 25 
298 275 260 238 256 259 244 231 224 222 227 224 227 228 227 225 242 240 232 255 258 262 244 205 199 192 189 191 199 195 181 167 168 177 182 189 191 187 179 172 174 174 163 183 191 188 194 232 261 253 207 196 204 214 215 209 200 194 193 200 208 204 202 201 200 201 201 191 170 137 95 68 53 41 38 27 27 31 21 26 
330 326 327 313 308 312 299 279 246 229 224 235 234 236 231 226 235 245 238 245 259 253 216 200 194 197 200 206 211 189 168 164 162 176 181 178 166 170 169 176 179 166 174 184 190 188 207 242 261 256 203 213 223 222 208 198 198 196 206 204 205 200 200 197 193 190 186 184 185 183 180 149 90 52 46 28 28 26 26 25 
355 344 346 337 335 335 322 311 282 242 233 243 242 240 244 232 231 240 242 238 244 243 206 195 203 207 213 204 180 164 161 160 167 176 169 169 168 174 178 183 174 173 190 196 195 197 218 258 262 247 215 225 232 221 204 198 202 207 207 196 199 198 187 174 174 166 165 164 171 192 188 185 159 104 56 39 29 26 22 28 
365 359 363 355 352 345 332 323 309 254 235 245 243 236 237 231 232 239 233 235 231 225 205 197 204 203 195 165 154 156 159 165 165 163 167 166 175 182 183 182 176 189 202 205 202 205 226 252 258 238 224 234 234 224 208 199 196 189 188 184 181 171 169 158 166 165 166 162 156 156 163 163 162 145 108 57 37 27 26 25 
358 358 365 353 350 347 334 333 316 264 234 240 238 231 221 222 218 218 219 227 224 223 202 194 197 182 161 153 158 155 160 164 166 165 163 169 180 188 180 181 185 203 216 220 212 211 227 245 255 234 232 242 236 220 203 188 182 178 181 181 185 177 176 174 182 183 181 178 171 169 167 160 155 141 132 102 59 31 17 20 
345 343 352 343 346 347 340 324 283 239 222 220 214 207 196 196 193 200 207 208 210 214 206 199 190 164 157 156 156 160 160 161 163 164 168 171 172 182 180 182 187 201 218 223 217 217 229 237 243 218 237 242 231 210 190 181 182 192 193 188 189 180 183 190 199 203 197 186 183 190 191 186 169 145 136 124 102 59 37 24 
305 321 332 332 333 334 330 290 225 205 195 202 201 197 194 199 202 205 202 208 209 212 211 215 203 170 165 159 161 160 160 159 161 168 168 171 176 176 183 185 189 192 218 221 219 218 228 228 221 209 240 237 218 201 194 196 198 202 193 179 175 182 187 189 186 179 173 168 170 171 187 196 189 161 144 131 117 104 75 45 
216 240 259 281 305 312 291 244 197 186 178 192 195 191 196 200 205 210 210 212 216 213 217 211 206 178 168 163 169 165 163 162 163 167 174 172 175 183 182 186 190 199 215 218 217 217 223 231 220 209 234 228 212 202 201 201 199 192 172 162 165 159 158 159 158 158 157 158 154 154 154 165 173 157 147 125 115 101 80 53 


